<?xml version="1.0" encoding="UTF-8"?>
<svg version="1.1" xmlns="http://www.w3.org/2000/svg" width="180" height="180">
<path d="M0 0 C0.66741211 0.28939453 1.33482422 0.57878906 2.02246094 0.87695312 C15.94196812 7.08243148 29.98676555 15.36885736 41 26 C41 26.66 41 27.32 41 28 C41.66 28 42.32 28 43 28 C44.625 29.375 44.625 29.375 46 31 C46 31.66 46 32.32 46 33 C46.66 33 47.32 33 48 33 C59.2008573 44.61123354 68.03507601 59.07623371 74 74 C74.2568457 74.60908203 74.51369141 75.21816406 74.77832031 75.84570312 C78.83672444 85.7546693 79.45268798 95.34213455 79.5 106 C79.50636475 107.24088379 79.51272949 108.48176758 79.51928711 109.76025391 C79.33559048 122.89944345 75.41375394 133.52320433 66.1875 143.1875 C64 145 64 145 62 145 C62 145.66 62 146.32 62 147 C59.86037192 148.13829431 57.71441001 149.26034158 55.5625 150.375 C54.97017578 150.69210938 54.37785156 151.00921875 53.76757812 151.3359375 C46.0709085 155.28716897 38.39300653 156.37133165 29.8125 156.3125 C28.99313965 156.30976074 28.1737793 156.30702148 27.32958984 156.30419922 C18.17422142 156.148963 9.46995348 154.5942607 1 151 C1.33 151.70125 1.66 152.4025 2 153.125 C3.11142813 156.32035587 3.29224491 158.63918352 3 162 C1 165 1 165 -2.0625 166.0625 C-7.79950833 165.97143638 -10.52023304 163.39949618 -15 160 C-17.14169923 158.3818624 -19.28973847 156.77468514 -21.45361328 155.1862793 C-22.97260123 154.07085831 -24.47918724 152.93832874 -25.97216797 151.78833008 C-26.67744629 151.27036865 -27.38272461 150.75240723 -28.109375 150.21875 C-28.73811523 149.74373047 -29.36685547 149.26871094 -30.01464844 148.77929688 C-32.05564017 147.74975288 -32.05564017 147.74975288 -34.47753906 148.67797852 C-36.90614509 149.95081065 -39.04734018 151.30377845 -41.25 152.93359375 C-42.0234375 153.50013672 -42.796875 154.06667969 -43.59375 154.65039062 C-44.3878125 155.24013672 -45.181875 155.82988281 -46 156.4375 C-58.98783257 166.02024335 -58.98783257 166.02024335 -63.125 165.9375 C-66 165 -66 165 -67.9375 163.5 C-70.90920917 156.50774313 -66.74095557 147.45190517 -64.4375 140.6875 C-63.78505208 138.75569236 -63.13769692 136.82215524 -62.49609375 134.88671875 C-62.06574829 133.62154419 -62.06574829 133.62154419 -61.62670898 132.33081055 C-60.82689476 129.75846542 -60.82689476 129.75846542 -61 126 C-62.31848988 124.55521552 -62.31848988 124.55521552 -64.18359375 123.44921875 C-64.860271 123.0015918 -65.53694824 122.55396484 -66.23413086 122.09277344 C-66.96124268 121.6290332 -67.68835449 121.16529297 -68.4375 120.6875 C-69.90720096 119.7084573 -71.3759564 118.72799368 -72.84375 117.74609375 C-74.22906397 116.83057375 -75.61447178 115.91519572 -77 115 C-85.5418948 109.28705747 -85.5418948 109.28705747 -87.3125 104.3125 C-87 101 -87 101 -85.45605469 98.83105469 C-82.17869084 96.38769198 -79.32781888 96.39752383 -75.390625 96.390625 C-74.66381531 96.37408875 -73.93700562 96.35755249 -73.18817139 96.34051514 C-70.87536131 96.29207639 -68.56320843 96.27067511 -66.25 96.25 C-64.67835243 96.22183659 -63.10673541 96.19190863 -61.53515625 96.16015625 C-57.69015831 96.08631953 -53.84552428 96.03672052 -50 96 C-49.74307373 95.24380371 -49.48614746 94.48760742 -49.22143555 93.70849609 C-48.0478474 90.26248417 -46.86774001 86.81873907 -45.6875 83.375 C-45.28337891 82.18519531 -44.87925781 80.99539062 -44.46289062 79.76953125 C-44.06650391 78.61582031 -43.67011719 77.46210937 -43.26171875 76.2734375 C-42.90037842 75.21560059 -42.53903809 74.15776367 -42.16674805 73.06787109 C-38.88674888 64.44337444 -38.88674888 64.44337444 -36 63 C-30.7261248 62.4267527 -30.7261248 62.4267527 -27.95214844 64.61669922 C-25.61741307 67.46708525 -24.73866685 69.93207543 -23.640625 73.4453125 C-23.05087891 75.30736328 -23.05087891 75.30736328 -22.44921875 77.20703125 C-22.04946723 78.51301718 -21.64972778 79.8190068 -21.25 81.125 C-20.83570726 82.43914047 -20.42035304 83.7529468 -20.00390625 85.06640625 C-17 94.65695079 -17 94.65695079 -17 97 C-15.48647949 96.9685791 -15.48647949 96.9685791 -13.94238281 96.93652344 C-10.19285313 96.86403215 -6.44338518 96.8181678 -2.69335938 96.78027344 C-1.07150857 96.76017856 0.55026997 96.73289746 2.171875 96.69824219 C4.5053898 96.6496273 6.83794557 96.62701111 9.171875 96.609375 C9.89493835 96.58872986 10.61800171 96.56808472 11.36297607 96.54681396 C14.79424147 96.54529036 16.67681781 96.76451645 19.4831543 98.80932617 C21 101 21 101 21.09765625 104.44140625 C19.74238546 108.83518451 18.08739995 110.21056325 14.4375 112.9375 C13.42558594 113.70964844 12.41367188 114.48179688 11.37109375 115.27734375 C10.58863281 115.84582031 9.80617188 116.41429688 9 117 C11.0829243 117.64715133 13.16635539 118.29267166 15.25 118.9375 C16.41015625 119.29714844 17.5703125 119.65679687 18.765625 120.02734375 C19.83296875 120.34832031 20.9003125 120.66929688 22 121 C22.67160156 121.20238281 23.34320313 121.40476562 24.03515625 121.61328125 C31.89182738 123.15962408 40.86558533 122.83019616 48 119 C53.78596317 114.97321368 57.83214903 110.75364692 59.5546875 103.7421875 C60.93947076 95.21483798 60.56431595 86.25297088 58 78 C57.75507813 77.175 57.51015625 76.35 57.2578125 75.5 C54.37889704 66.73586798 49.86624061 58.0598451 44.25390625 50.71484375 C43 49 43 49 43 47 C42.34 47 41.68 47 41 47 C40.01 44.525 40.01 44.525 39 42 C38.34 42 37.68 42 37 42 C35.44921875 40.390625 35.44921875 40.390625 33.6875 38.25 C31.01237765 35.08238651 28.26074314 32.56907035 25 30 C25 29.34 25 28.68 25 28 C24.13955078 27.59974609 24.13955078 27.59974609 23.26171875 27.19140625 C20.91343821 25.95440182 18.93632997 24.52755324 16.8125 22.9375 C-1.414638 10.17317383 -21.47682993 2.45509871 -44 5 C-54.38026341 6.87989022 -63.57747732 12.5442715 -70.375 20.625 C-76.84548739 30.0775381 -79.20422278 41.6243915 -79.0625 52.875 C-79.05573242 53.90753906 -79.05573242 53.90753906 -79.04882812 54.9609375 C-79.03716336 56.64066335 -79.01923271 58.32034375 -79 60 C-79.66 59.67 -80.32 59.34 -81 59 C-85.59936554 43.96361266 -81.17102285 27.57322381 -74.20703125 14.23828125 C-73.80871094 13.49964844 -73.41039062 12.76101562 -73 12 C-72.34 12 -71.68 12 -71 12 C-70.73316406 11.40058594 -70.46632813 10.80117187 -70.19140625 10.18359375 C-66.2865732 3.02686695 -57.4183928 -1.31200811 -50.0859375 -4.11328125 C-34.57505185 -8.27970286 -14.67250683 -6.41874977 0 0 Z " fill="#FDD887" transform="translate(101,5)"/>
<path d="M0 0 C3.75514259 2.96453913 4.95207223 5.94258042 6.359375 10.4453125 C6.94912109 12.30736328 6.94912109 12.30736328 7.55078125 14.20703125 C7.95053277 15.51301718 8.35027222 16.8190068 8.75 18.125 C9.16429274 19.43914047 9.57964696 20.7529468 9.99609375 22.06640625 C13 31.65695079 13 31.65695079 13 34 C14.00901367 33.97905273 15.01802734 33.95810547 16.05761719 33.93652344 C19.80714687 33.86403215 23.55661482 33.8181678 27.30664062 33.78027344 C28.92849143 33.76017856 30.55026997 33.73289746 32.171875 33.69824219 C34.5053898 33.6496273 36.83794557 33.62701111 39.171875 33.609375 C39.89493835 33.58872986 40.61800171 33.56808472 41.36297607 33.54681396 C44.79773183 33.54528881 46.66882822 33.75539194 49.46582031 35.82128906 C51 38 51 38 51.375 41.25 C48.85871417 48.11259772 42.30678507 52.04336938 35.875 55.125 C34.92753906 55.55425781 34.92753906 55.55425781 33.9609375 55.9921875 C30.32576725 57.86046225 27.18524441 60.45858159 24 63 C25.57670801 72.19054802 27.7916616 81.45802627 31.75 89.9375 C33.10455105 93.25615008 33.4031696 95.45210754 33 99 C31 102 31 102 27.9375 103.0625 C22.20049167 102.97143638 19.47976696 100.39949618 15 97 C12.85830077 95.3818624 10.71026153 93.77468514 8.54638672 92.1862793 C7.02739877 91.07085831 5.52081276 89.93832874 4.02783203 88.78833008 C3.32255371 88.27036865 2.61727539 87.75240723 1.890625 87.21875 C1.26188477 86.74373047 0.63314453 86.26871094 -0.01464844 85.77929688 C-2.05564017 84.74975288 -2.05564017 84.74975288 -4.47753906 85.67797852 C-6.90614509 86.95081065 -9.04734018 88.30377845 -11.25 89.93359375 C-12.41015625 90.7834082 -12.41015625 90.7834082 -13.59375 91.65039062 C-14.3878125 92.24013672 -15.181875 92.82988281 -16 93.4375 C-28.98783257 103.02024335 -28.98783257 103.02024335 -33.125 102.9375 C-36 102 -36 102 -37.9375 100.5 C-40.90920917 93.50774313 -36.74095557 84.45190517 -34.4375 77.6875 C-33.78505208 75.75569236 -33.13769692 73.82215524 -32.49609375 71.88671875 C-32.20919678 71.04326904 -31.9222998 70.19981934 -31.62670898 69.33081055 C-30.82689476 66.75846542 -30.82689476 66.75846542 -31 63 C-32.31848988 61.55521552 -32.31848988 61.55521552 -34.18359375 60.44921875 C-34.860271 60.0015918 -35.53694824 59.55396484 -36.23413086 59.09277344 C-36.96124268 58.6290332 -37.68835449 58.16529297 -38.4375 57.6875 C-39.90720096 56.7084573 -41.3759564 55.72799368 -42.84375 54.74609375 C-44.22906397 53.83057375 -45.61447178 52.91519572 -47 52 C-55.5418948 46.28705747 -55.5418948 46.28705747 -57.3125 41.3125 C-57 38 -57 38 -55.45605469 35.83105469 C-52.17869084 33.38769198 -49.32781888 33.39752383 -45.390625 33.390625 C-44.66381531 33.37408875 -43.93700562 33.35755249 -43.18817139 33.34051514 C-40.87536131 33.29207639 -38.56320843 33.27067511 -36.25 33.25 C-34.67835243 33.22183659 -33.10673541 33.19190863 -31.53515625 33.16015625 C-27.69015831 33.08631953 -23.84552428 33.03672052 -20 33 C-19.74307373 32.24380371 -19.48614746 31.48760742 -19.22143555 30.70849609 C-18.0478474 27.26248417 -16.86774001 23.81873907 -15.6875 20.375 C-15.28337891 19.18519531 -14.87925781 17.99539062 -14.46289062 16.76953125 C-13.86831055 15.03896484 -13.86831055 15.03896484 -13.26171875 13.2734375 C-12.90037842 12.21560059 -12.53903809 11.15776367 -12.16674805 10.06787109 C-8.03233695 -0.8032337 -8.03233695 -0.8032337 0 0 Z " fill="#FEAC32" transform="translate(71,68)"/>
</svg>
